<svg xmlns="http://www.w3.org/2000/svg" viewBox="0 0 64 64">
    <defs>
        <lineargradient id="resharper-cpp_resharper-cpp_svg__a" x1="-.391" x2="24.392" y1="7.671" y2="61.126"
            gradientUnits="userSpaceOnUse">
            <stop offset=".19" stop-color="#FF45ED"></stop>
            <stop offset=".54" stop-color="#FF0A67"></stop>
        </lineargradient>
        <lineargradient id="resharper-cpp_resharper-cpp_svg__b" x1="4.325" x2="62.921" y1="59.932" y2="1.336"
            gradientUnits="userSpaceOnUse">
            <stop offset=".26" stop-color="#FF0A67"></stop>
            <stop offset=".65" stop-color="#FDB60D"></stop>
        </lineargradient>
    </defs>
    <path fill="#FF45ED"
        d="M16.45 6H4.191a4.125 4.125 0 0 0-4.124 4.19l.176 11.044a4.125 4.125 0 0 0 1.44 3.066l38.159 32.707c.747.64 1.7.993 2.684.993h11.35A4.125 4.125 0 0 0 58 53.875V42.872c0-1.19-.514-2.321-1.41-3.105L19.167 7.021A4.123 4.123 0 0 0 16.45 6Z">
    </path>
    <path fill="url(#resharper-cpp_resharper-cpp_svg__a)"
        d="M14.988 6H4.125A4.125 4.125 0 0 0 0 10.125v12.566c0 .2.014.4.044.598l5.448 37.185A4.125 4.125 0 0 0 9.573 64h15.398a4.125 4.125 0 0 0 4.125-4.127L29.09 41.37c0-.426-.066-.849-.195-1.254l-9.98-31.245A4.126 4.126 0 0 0 14.988 6V6Z">
    </path>
    <path fill="url(#resharper-cpp_resharper-cpp_svg__b)"
        d="M59.876 0H25.748a4.125 4.125 0 0 0-3.8 2.52L6.151 39.943a4.118 4.118 0 0 0-.325 1.638l.15 18.329A4.125 4.125 0 0 0 10.101 64h17.666c.806 0 1.593-.236 2.266-.678l32.11-21.109A4.123 4.123 0 0 0 64 38.766V4.125A4.125 4.125 0 0 0 59.876 0Z">
    </path>
    <path fill="#000" d="M52 12H12v40h40V12Z"></path>
    <path fill="#fff"
        d="M33 44H17v3h16v-3ZM16.996 16.992h6.442c1.05 0 1.976.193 2.776.579.8.386 1.417.929 1.849 1.63.432.7.649 1.51.649 2.432 0 .922-.22 1.75-.66 2.46-.439.712-1.065 1.262-1.875 1.651-.811.39-1.753.584-2.825.584h-3.43v5.67h-2.926V16.992Zm7.54 6.63c.369-.182.653-.443.853-.782.2-.34.3-.735.3-1.185 0-.45-.1-.852-.3-1.184-.2-.333-.485-.59-.852-.772-.368-.182-.799-.273-1.292-.273h-3.323v4.47h3.323c.493 0 .924-.091 1.292-.273Zm-2.631 1.763h3.194L29.033 32h-3.355l-3.773-6.614ZM44.411 19.617v-3.633h-2.264v3.639h-3.582v2.18h3.582v3.624h2.264V21.79h3.582v-2.18h-3.582v.008Zm-7.955 2.936H34.19v3.638H30.61v2.18h3.582v3.625h2.265v-3.638h3.581v-2.181h-3.581v-3.624Z">
    </path>
</svg>