<svg xmlns="http://www.w3.org/2000/svg" viewBox="0 0 64 64">

    <defs>
        <lineargradient id="goland_goland_svg__a" x1="64.391" x2="39.607" y1="56.329" y2="2.874"
            gradientUnits="userSpaceOnUse">
            <stop offset=".24" stop-color="#00D886"></stop>
            <stop offset=".51" stop-color="#007DFE"></stop>
        </lineargradient>
        <lineargradient id="goland_goland_svg__b" x1="59.676" x2="1.08" y1="4.067" y2="62.663"
            gradientUnits="userSpaceOnUse">
            <stop offset=".27" stop-color="#007DFE"></stop>
            <stop offset=".7" stop-color="#D249FC"></stop>
        </lineargradient>
    </defs>
    <path fill="#00D886"
        d="M47.55 58h12.259a4.125 4.125 0 0 0 4.124-4.19l-.176-11.044a4.125 4.125 0 0 0-1.44-3.066L24.159 6.993A4.126 4.126 0 0 0 21.474 6H10.125A4.125 4.125 0 0 0 6 10.125v11.003c0 1.19.514 2.321 1.409 3.104L44.834 56.98A4.123 4.123 0 0 0 47.55 58Z">
    </path>
    <path fill="url(#goland_goland_svg__a)"
        d="M49.013 58h10.862A4.125 4.125 0 0 0 64 53.875V41.309c0-.2-.014-.4-.044-.598L58.508 3.527A4.124 4.124 0 0 0 54.427 0H39.029a4.125 4.125 0 0 0-4.125 4.126l.005 18.505c0 .425.066.848.195 1.253l9.979 31.246a4.126 4.126 0 0 0 3.93 2.87Z">
    </path>
    <path fill="url(#goland_goland_svg__b)"
        d="M4.125 64h34.127a4.125 4.125 0 0 0 3.8-2.52L57.85 24.057c.219-.518.33-1.076.324-1.638l-.15-18.329A4.124 4.124 0 0 0 53.9 0H36.234c-.805 0-1.593.236-2.266.678L1.86 21.787A4.125 4.125 0 0 0 0 25.234v34.641A4.125 4.125 0 0 0 4.125 64Z">
    </path>
    <path fill="#000" d="M52 12H12v40h40V12Z"></path>
    <path fill="#fff"
        d="M19.748 31.242a7.286 7.286 0 0 1-2.743-2.786c-.665-1.183-.997-2.503-.997-3.961s.332-2.778.997-3.96 1.58-2.112 2.743-2.787c1.165-.675 2.465-1.014 3.902-1.014 1.165 0 2.238.208 3.222.622a6.908 6.908 0 0 1 2.486 1.747 6.368 6.368 0 0 1 1.42 2.594h-3.13a3.913 3.913 0 0 0-.926-1.228c-.39-.346-.845-.614-1.367-.803s-1.083-.284-1.683-.284c-.887 0-1.687.221-2.402.664a4.611 4.611 0 0 0-1.677 1.828c-.404.775-.606 1.649-.606 2.62s.202 1.846.606 2.621a4.606 4.606 0 0 0 1.677 1.828c.715.443 1.515.664 2.402.664.821 0 1.566-.154 2.235-.461.668-.307 1.198-.733 1.591-1.276a3.295 3.295 0 0 0 .633-1.833l.01.31h-3.526v-2.304h6.357v1.18c0 1.321-.32 2.517-.96 3.585a6.885 6.885 0 0 1-2.626 2.525c-1.111.614-2.356.921-3.736.921s-2.737-.337-3.902-1.013v.002ZM36.271 31.242a7.32 7.32 0 0 1-2.755-2.786c-.668-1.183-1.002-2.503-1.002-3.961s.333-2.778 1.002-3.96a7.314 7.314 0 0 1 2.755-2.787c1.168-.675 2.474-1.014 3.918-1.014 1.443 0 2.738.338 3.907 1.013a7.279 7.279 0 0 1 2.749 2.787c.664 1.183.997 2.503.997 3.961s-.333 2.778-.997 3.96-1.581 2.113-2.75 2.788c-1.168.675-2.47 1.013-3.906 1.013-1.437 0-2.75-.338-3.918-1.013Zm6.308-2.229c.708-.446 1.262-1.065 1.662-1.854.4-.79.6-1.678.6-2.664 0-.986-.2-1.874-.6-2.664-.4-.79-.954-1.407-1.662-1.854-.707-.446-1.504-.67-2.39-.67-.885 0-1.685.223-2.395.67a4.62 4.62 0 0 0-1.672 1.854c-.404.79-.606 1.678-.606 2.664 0 .986.202 1.874.606 2.664.404.79.961 1.408 1.672 1.854.71.447 1.51.67 2.395.67.887 0 1.683-.223 2.39-.67ZM33 44H17v3h16v-3Z">
    </path>


</svg>