<svg xmlns="http://www.w3.org/2000/svg" viewBox="0 0 64 64">
    <defs>
        <lineargradient id="webstorm_webstorm_svg__a" x1="7.671" x2="61.126" y1="64.392" y2="39.609"
            gradientUnits="userSpaceOnUse">
            <stop offset=".22" stop-color="#F0EB18"></stop>
            <stop offset=".59" stop-color="#00C4F4"></stop>
        </lineargradient>
        <lineargradient id="webstorm_webstorm_svg__b" x1="59.932" x2="1.337" y1="59.676" y2="1.079"
            gradientUnits="userSpaceOnUse">
            <stop offset=".19" stop-color="#00C4F4"></stop>
            <stop offset=".83" stop-color="#007DFE"></stop>
        </lineargradient>
    </defs>
    <path fill="#F0EB18"
        d="M6 47.55v12.258a4.125 4.125 0 0 0 4.19 4.124l11.044-.176a4.124 4.124 0 0 0 3.066-1.44l32.707-38.158c.64-.747.993-1.7.993-2.684V10.125A4.125 4.125 0 0 0 53.875 6H42.872c-1.19 0-2.321.514-3.105 1.409L7.021 44.833A4.124 4.124 0 0 0 6 47.55Z">
    </path>
    <path fill="url(#webstorm_webstorm_svg__a)"
        d="M6 49.015v10.862a4.125 4.125 0 0 0 4.125 4.125h12.566c.2 0 .4-.014.598-.044l37.185-5.448A4.125 4.125 0 0 0 64 54.429V39.03a4.125 4.125 0 0 0-4.127-4.125l-18.504.005c-.426 0-.849.066-1.254.195L8.871 45.085A4.126 4.126 0 0 0 6 49.015H6Z">
    </path>
    <path fill="url(#webstorm_webstorm_svg__b)"
        d="M0 4.125v34.127c0 1.659.993 3.155 2.52 3.8L39.943 57.85c.518.219 1.075.33 1.638.324l18.329-.15A4.125 4.125 0 0 0 64 53.9V36.234c0-.806-.236-1.593-.678-2.267L42.213 1.86A4.125 4.125 0 0 0 38.766 0H4.125A4.125 4.125 0 0 0 0 4.125Z">
    </path>
    <path fill="#000" d="M52 12H12v40h40V12Z"></path>
    <path fill="#fff"
        d="M33 44H17v3h16v-3ZM19.051 16.992l2.423 10.955 2.583-10.955h2.958l2.701 10.955 2.348-10.955h2.97l-3.645 15.006h-3.334l-2.53-10.9-2.561 10.9H19.64l-3.623-15.006h3.033ZM38.662 31.664c-.84-.393-1.497-.943-1.972-1.65-.475-.708-.72-1.522-.735-2.444h2.937c0 .436.114.818.343 1.147.229.329.547.586.954.772.407.185.875.278 1.404.278.53 0 .952-.083 1.335-.251.382-.168.678-.402.889-.702.21-.3.316-.643.316-1.029 0-.479-.145-.875-.434-1.19-.29-.314-.688-.532-1.195-.654l-2.648-.59c-.714-.156-1.336-.426-1.865-.809a4.015 4.015 0 0 1-1.232-1.42c-.293-.564-.44-1.2-.44-1.908 0-.857.222-1.627.665-2.31.443-.682 1.061-1.215 1.854-1.597.793-.382 1.694-.573 2.701-.573 1.008 0 1.934.186 2.734.558.8.372 1.423.888 1.87 1.549.447.66.673 1.42.68 2.277h-2.925c0-.364-.097-.691-.29-.98s-.466-.515-.82-.676a2.915 2.915 0 0 0-1.217-.24c-.457 0-.859.076-1.205.23a1.903 1.903 0 0 0-.81.643c-.193.275-.289.595-.289.96 0 .414.134.757.402 1.028.268.272.634.464 1.099.579l2.55.557c.737.15 1.392.435 1.968.852a4.45 4.45 0 0 1 1.345 1.544 4.23 4.23 0 0 1 .482 1.999c0 .886-.234 1.681-.702 2.385-.468.703-1.123 1.255-1.966 1.656-.844.4-1.809.6-2.894.6-1.086 0-2.05-.197-2.889-.59Z">
    </path>

</svg>