<svg xmlns="http://www.w3.org/2000/svg" viewBox="0 0 64 64">
    <defs>
        <lineargradient id="datalore_datalore_svg__a" x1="56.329" x2="2.874" y1="-.391" y2="24.392"
            gradientUnits="userSpaceOnUse">
            <stop offset=".1" stop-color="#3bea62"></stop>
            <stop offset=".59" stop-color="#f0eb18"></stop>
        </lineargradient>
        <lineargradient id="datalore_datalore_svg__b" x1="4.067" x2="62.664" y1="4.326" y2="62.923"
            gradientUnits="userSpaceOnUse">
            <stop offset=".26" stop-color="#f0eb18"></stop>
            <stop offset=".65" stop-color="#087cfa"></stop>
        </lineargradient>
    </defs>
    <path fill="#3bea62"
        d="M58 16.446V4.187A4.125 4.125 0 0 0 53.81.063L42.765.239A4.125 4.125 0 0 0 39.7 1.68L6.993 39.837c-.64.748-.993 1.7-.993 2.685v11.35a4.125 4.125 0 0 0 4.125 4.124h11.003c1.19 0 2.321-.514 3.104-1.409L56.98 19.162A4.124 4.124 0 0 0 58 16.446z">
    </path>
    <path fill="url(#datalore_datalore_svg__a)"
        d="M58 14.988V4.125A4.125 4.125 0 0 0 53.875 0H41.309c-.2 0-.4.014-.598.044L3.527 5.492A4.125 4.125 0 0 0 0 9.573v15.398a4.125 4.125 0 0 0 4.126 4.125l18.505-.005c.425 0 .848-.066 1.253-.195l31.246-9.98A4.126 4.126 0 0 0 58 14.988z">
    </path>
    <path fill="url(#datalore_datalore_svg__b)"
        d="M64 59.878V25.75a4.125 4.125 0 0 0-2.52-3.8L24.057 6.153a4.118 4.118 0 0 0-1.638-.325l-18.329.15A4.124 4.124 0 0 0 0 10.103v17.665c0 .806.236 1.593.678 2.266l21.109 32.11a4.124 4.124 0 0 0 3.447 1.859h34.641A4.125 4.125 0 0 0 64 59.878z">
    </path>
    <path fill="#000" d="M52 12H12v40h40z"></path>
    <path fill="#fff"
        d="M33 44H17v3h16zM16.996 16.992h5.713c1.422 0 2.696.321 3.821.965a6.881 6.881 0 0 1 2.642 2.674c.636 1.14.954 2.427.954 3.864s-.318 2.725-.954 3.865a6.89 6.89 0 0 1-2.642 2.674c-1.125.643-2.399.964-3.82.964h-5.714zm8.028 11.876c.672-.4 1.19-.973 1.555-1.72s.547-1.63.547-2.653-.183-1.907-.547-2.653c-.365-.747-.883-1.32-1.555-1.721-.672-.4-1.454-.6-2.347-.6h-2.755v9.947h2.755c.893 0 1.675-.2 2.347-.6zM35.602 16.992v12.37h7.118v2.636H32.687V16.992h2.916z">
    </path>

</svg>