<svg xmlns="http://www.w3.org/2000/svg" viewBox="0 0 64 64">

    <defs>
        <lineargradient id="datagrip_datagrip_svg__a" x1="59.676" x2="1.08" y1="4.067" y2="62.663"
            gradientUnits="userSpaceOnUse">
            <stop offset=".28" stop-color="#7256FF"></stop>
            <stop offset=".66" stop-color="#00D980"></stop>
        </lineargradient>
        <lineargradient id="datagrip_datagrip_svg__b" x1="64.391" x2="39.607" y1="56.329" y2="2.874"
            gradientUnits="userSpaceOnUse">
            <stop offset=".3" stop-color="#FF43F2"></stop>
            <stop offset=".54" stop-color="#7256FF"></stop>
        </lineargradient>
    </defs>
    <path fill="url(#datagrip_datagrip_svg__a)"
        d="M4.125 64h34.127a4.125 4.125 0 0 0 3.8-2.52L57.85 24.057c.219-.518.33-1.076.324-1.638l-.15-18.329A4.125 4.125 0 0 0 53.9 0H36.234c-.806 0-1.593.236-2.267.678L1.86 21.787A4.125 4.125 0 0 0 0 25.234v34.641A4.125 4.125 0 0 0 4.125 64Z">
    </path>
    <path fill="url(#datagrip_datagrip_svg__b)"
        d="M49.013 58h10.862A4.125 4.125 0 0 0 64 53.875V41.309c0-.2-.014-.4-.044-.598L58.508 3.527A4.125 4.125 0 0 0 54.427 0H39.029a4.125 4.125 0 0 0-4.125 4.126l.005 18.505c0 .425.066.848.195 1.253l9.979 31.246a4.126 4.126 0 0 0 3.93 2.87Z">
    </path>
    <path fill="#FF43F2"
        d="M47.55 58h12.259a4.125 4.125 0 0 0 4.124-4.19L64 43c-.018-1.181-.785-2.531-1.682-3.3L24.159 6.993A4.126 4.126 0 0 0 21.474 6H10.125A4.125 4.125 0 0 0 6 10.125v11.003c0 1.19.514 2.321 1.409 3.104L44.834 56.98A4.123 4.123 0 0 0 47.55 58Z">
    </path>
    <path fill="#000" d="M52 12H12v40h40V12Z"></path>
    <path fill="#fff"
        d="M33 44H17v3h16v-3ZM17.012 16.992h5.713c1.422 0 2.696.321 3.821.965a6.882 6.882 0 0 1 2.642 2.674c.636 1.14.954 2.427.954 3.864 0 1.437-.318 2.725-.954 3.865a6.891 6.891 0 0 1-2.642 2.674c-1.125.643-2.4.964-3.821.964h-5.713V16.992Zm8.028 11.876c.672-.4 1.19-.973 1.554-1.72.365-.747.547-1.63.547-2.653 0-1.023-.182-1.907-.547-2.653-.364-.747-.882-1.32-1.554-1.721-.672-.4-1.454-.6-2.348-.6h-2.755v9.947h2.755c.893 0 1.676-.2 2.348-.6ZM35.426 31.242a7.287 7.287 0 0 1-2.744-2.786c-.664-1.183-.997-2.503-.997-3.961s.333-2.778.997-3.96 1.58-2.112 2.744-2.787c1.164-.675 2.466-1.014 3.902-1.014 1.164 0 2.238.208 3.221.622a6.909 6.909 0 0 1 2.487 1.747 6.362 6.362 0 0 1 1.42 2.594h-3.13a3.914 3.914 0 0 0-.927-1.228c-.39-.346-.845-.614-1.367-.803s-1.082-.284-1.683-.284c-.886 0-1.686.221-2.401.664a4.612 4.612 0 0 0-1.678 1.828c-.403.775-.605 1.649-.605 2.62s.202 1.846.605 2.621a4.607 4.607 0 0 0 1.678 1.828c.714.443 1.515.664 2.401.664.822 0 1.567-.154 2.235-.461.668-.307 1.199-.733 1.592-1.276a3.297 3.297 0 0 0 .633-1.833l.01.31h-3.526v-2.304h6.356v1.18c0 1.321-.32 2.517-.96 3.585a6.885 6.885 0 0 1-2.625 2.525c-1.112.614-2.357.921-3.736.921-1.38 0-2.737-.337-3.902-1.013v.002Z">
    </path>


</svg>