<svg xmlns="http://www.w3.org/2000/svg" viewBox="0 0 64 64">
    <defs>
        <lineargradient id="resharper_resharper_svg__a" x1="4.325" x2="62.921" y1="59.933" y2="1.337"
            gradientUnits="userSpaceOnUse">
            <stop offset=".29" stop-color="#FF45ED"></stop>
            <stop offset=".7" stop-color="#FF0A67"></stop>
        </lineargradient>
        <lineargradient id="resharper_resharper_svg__b" x1="-.391" x2="24.393" y1="7.671" y2="61.125"
            gradientUnits="userSpaceOnUse">
            <stop offset=".3" stop-color="#FDB60D"></stop>
            <stop offset=".54" stop-color="#FF45ED"></stop>
        </lineargradient>
    </defs>
    <path fill="url(#resharper_resharper_svg__a)"
        d="M59.876 0H25.749a4.125 4.125 0 0 0-3.8 2.52L6.15 39.943a4.118 4.118 0 0 0-.325 1.638l.15 18.329A4.125 4.125 0 0 0 10.101 64h17.666c.805 0 1.593-.236 2.266-.678l32.109-21.109a4.124 4.124 0 0 0 1.859-3.447V4.125A4.125 4.125 0 0 0 59.876 0Z">
    </path>
    <path fill="url(#resharper_resharper_svg__b)"
        d="M14.987 6H4.125A4.125 4.125 0 0 0 0 10.125v12.566c0 .2.014.4.044.598l5.448 37.185A4.125 4.125 0 0 0 9.573 64H24.97a4.125 4.125 0 0 0 4.125-4.127l-.004-18.504c0-.426-.066-.849-.196-1.254L18.917 8.871A4.126 4.126 0 0 0 14.987 6V6Z">
    </path>
    <path fill="#FDB60D"
        d="M16.45 6H4.19a4.125 4.125 0 0 0-4.124 4.19L0 21c.019 1.181.786 2.53 1.683 3.3l38.159 32.706c.747.64 1.7.993 2.684.993h11.35A4.125 4.125 0 0 0 58 53.874V42.871c0-1.19-.514-2.321-1.409-3.104L19.166 7.02A4.124 4.124 0 0 0 16.45 6Z">
    </path>
    <path fill="#000" d="M52 12H12v40h40V12Z"></path>
    <path fill="#fff"
        d="M33 44H17v3h16v-3ZM17.012 16.992h6.442c1.05 0 1.975.193 2.776.579.8.386 1.416.929 1.849 1.63.432.7.648 1.51.648 2.432 0 .922-.22 1.75-.66 2.46-.438.712-1.064 1.262-1.875 1.651-.811.39-1.752.584-2.824.584h-3.43v5.67h-2.926V16.992Zm7.54 6.63c.368-.182.652-.443.852-.782.2-.34.3-.735.3-1.185 0-.45-.1-.852-.3-1.184a2.01 2.01 0 0 0-.852-.772c-.368-.182-.798-.273-1.292-.273h-3.323v4.47h3.323c.494 0 .924-.091 1.292-.273Zm-2.631 1.763h3.194L29.05 32h-3.355l-3.773-6.614ZM42.811 26.264v1.908l-12.198.021v-1.908l12.198-.02Zm1.072-5.467v1.93l-12.198.02v-1.929l12.198-.02Zm-8.757-3.805h2.134l-3.216 15.006H31.91l3.215-15.006Zm5.327 0h2.133l-3.215 15.006h-2.133l3.215-15.006Z">
    </path>


</svg>