<svg xmlns="http://www.w3.org/2000/svg" viewBox="0 0 64 64">
    <defs>
        <lineargradient id="rider_rider_svg__a" x1="64.391" x2="39.607" y1="56.329" y2="2.874"
            gradientUnits="userSpaceOnUse">
            <stop offset=".21" stop-color="#007DFE"></stop>
            <stop offset=".55" stop-color="#FFB700"></stop>
        </lineargradient>
        <lineargradient id="rider_rider_svg__b" x1="59.676" x2="1.08" y1="4.067" y2="62.663"
            gradientUnits="userSpaceOnUse">
            <stop offset=".23" stop-color="#FFB700"></stop>
            <stop offset=".73" stop-color="#FF0A67"></stop>
        </lineargradient>
    </defs>
    <path fill="#007DFE"
        d="M47.55 58h12.258a4.125 4.125 0 0 0 4.124-4.19l-.176-11.044a4.124 4.124 0 0 0-1.44-3.066L24.158 6.993A4.126 4.126 0 0 0 21.474 6H10.125A4.125 4.125 0 0 0 6 10.125v11.003c0 1.19.514 2.321 1.409 3.104L44.834 56.98A4.124 4.124 0 0 0 47.55 58Z">
    </path>
    <path fill="url(#rider_rider_svg__a)"
        d="M49.013 58h10.862A4.125 4.125 0 0 0 64 53.875V41.309c0-.2-.014-.4-.044-.598L58.508 3.527A4.125 4.125 0 0 0 54.427 0H39.029a4.125 4.125 0 0 0-4.125 4.126l.005 18.505c0 .425.066.848.195 1.253l9.979 31.246a4.126 4.126 0 0 0 3.93 2.87Z">
    </path>
    <path fill="url(#rider_rider_svg__b)"
        d="M4.125 64h34.127a4.125 4.125 0 0 0 3.8-2.52L57.85 24.057c.219-.518.33-1.076.324-1.638l-.15-18.329A4.124 4.124 0 0 0 53.9 0H36.234c-.805 0-1.593.236-2.266.678L1.86 21.787A4.125 4.125 0 0 0 0 25.234v34.641A4.125 4.125 0 0 0 4.125 64Z">
    </path>
    <path fill="#000" d="M52 12H12v40h40V12Z"></path>
    <path fill="#fff"
        d="M33 44H17v3h16v-3ZM16.992 16.992h6.442c1.05 0 1.976.193 2.776.579.8.386 1.417.929 1.85 1.63.432.7.648 1.51.648 2.432 0 .922-.22 1.75-.66 2.46-.439.712-1.065 1.262-1.875 1.651-.811.39-1.753.584-2.825.584h-3.43v5.67h-2.926V16.992Zm7.54 6.63c.369-.183.653-.444.853-.783.2-.34.3-.734.3-1.184 0-.45-.1-.852-.3-1.185-.2-.332-.485-.59-.852-.772-.368-.182-.799-.273-1.292-.273h-3.323v4.47h3.323c.493 0 .924-.09 1.292-.273Zm-2.63 1.763h3.194L29.03 32h-3.355l-3.773-6.614ZM31.613 16.992h5.713c1.422 0 2.696.321 3.822.965a6.881 6.881 0 0 1 2.641 2.674c.636 1.14.954 2.427.954 3.864 0 1.437-.318 2.725-.953 3.865a6.89 6.89 0 0 1-2.642 2.674c-1.125.643-2.4.964-3.822.964h-5.713V16.992Zm8.028 11.876c.672-.4 1.19-.973 1.555-1.72.364-.747.547-1.63.547-2.653 0-1.023-.183-1.907-.547-2.653-.365-.747-.883-1.32-1.555-1.721-.672-.4-1.454-.6-2.347-.6h-2.755v9.947h2.755c.893 0 1.675-.2 2.347-.6Z">
    </path>

</svg>